# xmcd
#
# Track frame offsets:
#	150
#	29157
#	40861
#	54274
#	71027
#	84008
#	102465
#	120195
#	141242
#	151019
#
# Disc length: 2276 seconds
#
# Revision: 0
# Processed by: cddbd v1.5.1PL0 Copyright (c) Steve Scherf et al.
# Submitted via: dBpowerAMP V4.0
#
DISCID=7908e20a
DTITLE=Various Artist - Classic Soul Hits [CD 2 - Lean On Me)
DYEAR=2005
DGENRE=Soul
TTITLE0=What'd I Say? - Ray Charles
TTITLE1=Hold On! I'm Comin' - Sam and Dave
TTITLE2=Lites - Oh Girl - Chi
TTITLE3=Outa-Space - Billy Preston
TTITLE4=Nutbush City Limits - Ike and Tina Turner
TTITLE5=Reach Out (I'll Be There) - Gloria Gaynor
TTITLE6=Lean On Me - Al Jarreau
TTITLE7=Close The Door - Teddy Pendergrass
TTITLE8=Every Dog Has His Day - Sly and The Family Stone
TTITLE9=Supernatural Thing - Ben E. King
EXTD=
EXTT0=
EXTT1=
EXTT2=
EXTT3=
EXTT4=
EXTT5=
EXTT6=
EXTT7=
EXTT8=
EXTT9=
PLAYORDER=
